<svg xmlns="http://www.w3.org/2000/svg" version="1.1" xmlns:xlink="http://www.w3.org/1999/xlink" xmlns:svgjs="http://svgjs.com/svgjs" width="512" height="512" x="0" y="0" viewBox="0 0 512 512" style="enable-background:new 0 0 512 512" xml:space="preserve"><g><path d="M483.752 150.527c-.004-8.609-1.845-16.216-5.569-22.744-3.657-6.42-9.133-11.801-16.482-16.056-60.646-34.969-121.35-69.831-181.978-104.836-16.345-9.435-32.192-9.091-48.416.48C207.169 21.607 86.312 90.848 50.299 111.708c-14.833 8.585-22.05 21.724-22.053 38.804-.022 70.325 0 140.647-.022 210.975.003 8.419 1.766 15.879 5.325 22.309 3.66 6.614 9.213 12.144 16.729 16.493 36.017 20.86 156.89 90.097 181.023 104.336 16.231 9.577 32.078 9.919 48.428.48 60.628-35.007 121.337-69.868 181.993-104.835 7.516-4.35 13.069-9.882 16.729-16.491 3.555-6.432 5.321-13.891 5.325-22.311 0 .001 0-140.614-.024-210.941z" style="" fill="#b14796" data-original="#b14796"></path><path d="M256.696 255.314 33.549 383.796c3.66 6.614 9.213 12.144 16.729 16.493 36.017 20.86 156.89 90.097 181.023 104.336 16.231 9.577 32.078 9.919 48.428.48 60.628-35.007 121.337-69.868 181.993-104.835 7.516-4.35 13.069-9.882 16.729-16.491L256.696 255.314z" style="" fill="#782379" data-original="#782379"></path><path d="M483.752 150.527c-.004-8.609-1.845-16.216-5.569-22.744l-221.487 127.53L478.451 383.78c3.555-6.432 5.321-13.891 5.325-22.311 0 0 0-140.615-.024-210.942z" style="" fill="#962c87" data-original="#962c87"></path><path d="M321.643 292.935c-12.92 22.911-37.469 38.395-65.643 38.395-28.002 0-52.412-15.29-65.397-37.958a74.984 74.984 0 0 1-9.934-37.373c0-41.604 33.728-75.33 75.332-75.33 27.822 0 52.102 15.099 65.152 37.536l65.843-37.916c-26.171-45.175-75.031-75.57-130.995-75.57-83.553 0-151.283 67.731-151.283 151.28 0 27.41 7.291 53.113 20.037 75.285C150.859 376.699 199.859 407.28 256 407.28c56.243 0 105.321-30.703 131.388-76.253l-65.745-38.092z" style="" fill="#ffffff" data-original="#ffffff"></path><path d="M450.197 247.349v-14.962H438.04V220.23h-14.962v12.157h-18.236V220.23h-14.963v12.157h-12.157v14.962h12.157v18.235h-12.157v14.964h12.157v12.155h14.963v-12.155h18.236v12.155h14.962v-12.155h12.158v-14.964H438.04v-18.235h12.157zm-27.119 18.235h-18.236v-18.235h18.236v18.235z" style="" fill="#ffffff" data-original="#ffffff"></path></g></svg>