 
<svg xmlns="http://www.w3.org/2000/svg" version="1.1" xmlns:xlink="http://www.w3.org/1999/xlink" xmlns:svgjs="http://svgjs.com/svgjs" width="512" height="512" x="0" y="0" viewBox="0 0 512 512" style="enable-background:new 0 0 512 512" xml:space="preserve" class=""><g><linearGradient id="a" x1="256" x2="256" y1="434.2" y2="91" gradientUnits="userSpaceOnUse"><stop offset="0" stop-color="#addcff"></stop><stop offset=".503" stop-color="#eaf6ff"></stop><stop offset="1" stop-color="#eaf6ff"></stop></linearGradient><linearGradient id="b" x1="256" x2="256" y1="496" y2="16" gradientUnits="userSpaceOnUse"><stop offset="0" stop-color="#5558ff"></stop><stop offset="1" stop-color="#00c0ff"></stop></linearGradient><path fill="url(#a)" d="m504.5 242.8-81.1-45c-4.801-2.4-10.201-2.4-15 0L376 216.105V91H136v125.105L103.599 197.8c-4.799-2.4-10.199-2.4-15 0L7.5 242.8C2.999 245.499 0 250.6 0 256s2.999 10.499 7.5 13.2L65.2 301l153.3 133.2h75L446.8 301l57.7-31.8c4.501-2.701 7.5-7.8 7.5-13.2s-2.999-10.501-7.5-13.2zM256 283.9 180.065 241h151.869z" data-original="url(#a)"></path><path fill="url(#b)" d="M504.5 332.8 446.8 301 263.5 404.2c-2.4 1.199-5.1 1.8-7.5 1.8s-5.1-.601-7.5-1.8L65.2 301 7.5 332.8C2.999 335.499 0 340.6 0 346s2.999 10.499 7.5 13.2l241 135c2.4 1.199 5.1 1.8 7.5 1.8s5.1-.601 7.5-1.8l241-135c4.501-2.701 7.5-7.8 7.5-13.2s-2.999-10.501-7.5-13.2zM7.5 179.2l241 135c2.4 1.199 5.1 1.8 7.5 1.8s5.1-.601 7.5-1.8l241-135c4.501-2.701 7.5-7.8 7.5-13.2s-2.999-10.501-7.5-13.2l-241-135c-4.799-2.4-10.201-2.4-15 0l-241 135C2.999 155.499 0 160.6 0 166s2.999 10.499 7.5 13.2zm298.001-32.701c-6-5.7-6-15.3 0-21 5.7-5.999 15.299-5.999 20.999 0l30 30c6 5.7 6 15.3 0 21l-30 30c-5.396 6-15.6 6.002-20.999 0-6-5.7-6-15.3 0-21L324.699 166zM233.8 192.4l15-60c2.1-8.101 10.199-12.9 18.3-10.802 8.101 1.8 12.9 9.901 11.1 18.001l-15 60c-2.556 9.799-13.626 13.14-18.3 10.8-8.1-1.799-12.9-9.9-11.1-17.999zm-78.299-36.901 30-30c5.7-5.999 15.299-5.999 20.999 0 6 5.7 6 15.3 0 21L187.301 166l19.198 19.499c6 5.7 6 15.3 0 21-5.396 6-15.6 6.002-20.999 0l-30-30c-6-5.7-6-15.3.001-21z" data-original="url(#b)"></path></g></svg>