<svg xmlns="http://www.w3.org/2000/svg" version="1.1" xmlns:xlink="http://www.w3.org/1999/xlink" xmlns:svgjs="http://svgjs.com/svgjs" width="512" height="512" x="0" y="0" viewBox="0 0 24 24" style="enable-background:new 0 0 512 512" xml:space="preserve" class=""><g><g fill="#3b82f6"><path d="M20 4H4a2 2 0 0 0-2 2v12a2 2 0 0 0 2 2h16a2 2 0 0 0 2-2V6a2 2 0 0 0-2-2zM6.707 16.707a.997.997 0 0 1-1.414 0 1 1 0 0 1 0-1.414L8.586 12 5.293 8.707a1 1 0 1 1 1.414-1.414l4 4a1 1 0 0 1 0 1.414l-4 4zM18 17h-6a1 1 0 1 1 0-2h6a1 1 0 1 1 0 2z" opacity=".3" fill="#3b82f6" data-original="#3b82f6" class=""></path><path d="M6.707 16.707a.997.997 0 0 1-1.414 0 1 1 0 0 1 0-1.414L8.586 12 5.293 8.707a1 1 0 1 1 1.414-1.414l4 4a1 1 0 0 1 0 1.414l-4 4zM18 17h-6a1 1 0 1 1 0-2h6a1 1 0 1 1 0 2z" fill="#3b82f6" data-original="#3b82f6" class=""></path></g></g></svg>