<svg width="720" height="400" viewBox="0 0 720 400" fill="none" xmlns="http://www.w3.org/2000/svg">
<g clip-path="url(#clip0_5_27)">
<rect width="1987" height="1543" transform="translate(-537 -346)" fill="white"/>
<path d="M248 144C220.386 144 198 166.386 198 194C198 221.614 220.386 244 248 244C275.614 244 298 221.614 298 194C297.969 166.399 275.601 144.031 248 144Z" fill="#2196F3"/>
<path d="M252.613 160.757C250.066 158.211 245.938 158.211 243.391 160.757L219.304 184.87C215.455 188.72 215.455 194.962 219.304 198.813C223.205 202.54 229.347 202.54 233.248 198.813L237.161 194.9V220.087C237.161 226.09 242.027 230.956 248.03 230.956C254.033 230.956 258.9 226.09 258.9 220.087V194.9L262.813 198.813C266.713 202.54 272.856 202.54 276.756 198.813C280.606 194.962 280.606 188.72 276.756 184.87L252.613 160.757Z" fill="#FAFAFA"/>
<path d="M341.984 216.096C337.824 216.16 334.864 216.144 333.104 216.048C332.496 216.016 331.968 215.792 331.52 215.376C331.072 214.928 330.832 214.384 330.8 213.744C330.768 213.584 330.752 213.44 330.752 213.312C330.72 211.488 330.64 207.184 330.512 200.4C330.384 193.616 330.32 188.08 330.32 183.792C330.32 183.12 330.544 182.56 330.992 182.112C331.472 181.632 332.048 181.392 332.72 181.392C333.392 181.392 333.952 181.632 334.4 182.112C334.88 182.56 335.12 183.12 335.12 183.792C335.12 187.024 335.136 190.128 335.168 193.104C335.232 196.08 335.296 199.36 335.36 202.944C335.456 206.496 335.504 209.28 335.504 211.296C337.168 211.328 339.712 211.312 343.136 211.248C346.592 211.184 349.216 211.168 351.008 211.2C351.68 211.2 352.24 211.44 352.688 211.92C353.136 212.4 353.36 212.976 353.36 213.648C353.36 214.32 353.12 214.88 352.64 215.328C352.16 215.776 351.584 216 350.912 216C349.184 215.968 346.208 216 341.984 216.096ZM367.132 216.24C364.764 216.08 362.7 215.6 360.94 214.8C359.18 214 357.836 212.992 356.908 211.776C355.98 210.56 355.308 209.44 354.892 208.416C354.476 207.392 354.22 206.384 354.124 205.392C354.028 204.368 354.076 203.056 354.268 201.456C354.492 200.112 354.956 198.784 355.66 197.472C356.396 196.16 357.356 194.992 358.54 193.968C359.756 192.912 361.212 192.112 362.908 191.568C364.604 190.992 366.412 190.816 368.332 191.04C370.188 191.264 371.772 191.776 373.084 192.576C374.396 193.344 375.516 194.336 376.444 195.552C377.244 196.576 377.724 197.344 377.884 197.856C378.076 198.368 378.236 198.848 378.364 199.296C378.524 199.744 378.652 200.128 378.748 200.448C378.844 200.768 378.924 201.104 378.988 201.456C379.084 201.776 379.148 202.16 379.18 202.608C379.212 203.216 379.1 203.776 378.844 204.288C378.588 204.8 378.204 205.2 377.692 205.488C377.276 205.648 376.828 205.728 376.348 205.728L368.14 205.872C362.38 205.904 359.5 205.968 359.5 206.064H359.356C359.772 207.696 360.636 208.976 361.948 209.904C363.292 210.832 365.116 211.376 367.42 211.536C368.668 211.6 369.708 211.536 370.54 211.344C371.468 211.088 372.14 210.864 372.556 210.672C372.972 210.448 373.484 210.16 374.092 209.808C374.7 209.584 375.308 209.616 375.916 209.904C376.524 210.192 376.94 210.64 377.164 211.248C377.388 211.856 377.356 212.448 377.068 213.024C376.812 213.6 376.396 214.048 375.82 214.368C375.308 214.656 374.78 214.912 374.236 215.136C373.692 215.328 372.892 215.568 371.836 215.856C370.78 216.144 369.212 216.272 367.132 216.24ZM359.452 201.36C361.308 201.264 366.124 201.168 373.9 201.072C373.612 200.112 373.148 199.2 372.508 198.336C371.228 196.864 369.644 196.016 367.756 195.792C365.772 195.536 364.028 195.968 362.524 197.088C361.02 198.176 359.996 199.6 359.452 201.36ZM397.073 215.232C395.921 215.68 394.609 215.936 393.137 216C391.697 216.064 390.353 215.904 389.105 215.52C387.857 215.104 386.753 214.48 385.793 213.648C384.129 212.272 383.057 210.56 382.577 208.512C382.097 206.464 382.081 204.624 382.529 202.992C382.977 201.36 383.649 199.776 384.545 198.24C385.473 196.672 386.465 195.36 387.521 194.304C388.609 193.216 389.857 192.304 391.265 191.568C392.673 190.832 394.145 190.48 395.681 190.512C397.217 190.512 398.833 190.928 400.529 191.76C400.785 191.888 401.057 192.08 401.345 192.336C401.665 192.592 401.937 192.816 402.161 193.008L402.785 193.632C402.977 193.824 403.073 193.936 403.073 193.968C403.585 194.416 403.857 194.992 403.889 195.696C404.305 197.616 404.577 199.632 404.705 201.744C404.833 203.856 404.865 205.84 404.801 207.696C404.769 209.552 404.801 211.52 404.897 213.6C404.929 214.24 404.721 214.8 404.273 215.28C403.825 215.76 403.265 216.016 402.593 216.048C401.921 216.08 401.345 215.872 400.865 215.424C400.385 214.976 400.129 214.432 400.097 213.792V213.072C399.137 214.064 398.129 214.784 397.073 215.232ZM394.913 210.912C395.393 210.784 395.777 210.656 396.065 210.528C396.353 210.4 396.705 210.208 397.121 209.952C397.569 209.696 398.033 209.376 398.513 208.992C398.993 208.608 399.425 208.128 399.809 207.552C399.873 207.488 399.953 207.424 400.049 207.36C400.049 203.04 399.777 199.568 399.233 196.944C399.137 196.816 399.025 196.704 398.897 196.608C398.801 196.48 398.721 196.384 398.657 196.32C398.625 196.256 398.561 196.208 398.465 196.176C398.401 196.112 398.321 196.048 398.225 195.984C396.689 195.152 395.073 195.136 393.377 195.936C391.681 196.704 390.193 198.16 388.913 200.304C387.633 202.48 386.993 204.384 386.993 206.016C387.025 207.616 387.649 208.944 388.865 210C389.601 210.608 390.513 210.992 391.601 211.152C392.689 211.312 393.793 211.232 394.913 210.912ZM413.461 216C412.821 216 412.261 215.792 411.781 215.376C411.301 214.928 411.061 214.336 411.061 213.6L410.965 203.808C410.933 201.6 410.917 198.848 410.917 195.552V192.72C410.917 191.984 411.141 191.408 411.589 190.992C412.037 190.576 412.581 190.368 413.221 190.368C413.893 190.368 414.469 190.592 414.949 191.04C415.461 191.456 415.717 192.048 415.717 192.816V194.256C416.069 193.488 416.725 192.832 417.685 192.288C418.997 191.488 420.437 191.088 422.005 191.088C423.189 191.088 424.101 191.28 424.741 191.664C425.381 192.048 425.701 192.736 425.701 193.728C425.701 194.368 425.509 194.912 425.125 195.36C424.741 195.776 424.181 195.984 423.445 195.984C420.757 195.984 418.901 196.352 417.877 197.088C417.301 197.472 416.789 197.936 416.341 198.48C415.925 199.024 415.717 199.552 415.717 200.064L415.813 206.064L415.861 213.6C415.861 214.336 415.621 214.928 415.141 215.376C414.661 215.792 414.101 216 413.461 216ZM430.805 216C430.165 216 429.605 215.792 429.125 215.376C428.645 214.928 428.405 214.336 428.405 213.6C428.405 211.072 428.389 208.896 428.357 207.072C428.293 201.632 428.261 196.912 428.261 192.912C428.261 192.176 428.485 191.6 428.933 191.184C429.381 190.768 429.925 190.56 430.565 190.56C431.237 190.56 431.813 190.784 432.293 191.232C432.805 191.648 433.061 192.24 433.061 193.008V194.496C435.045 191.904 437.653 190.608 440.885 190.608C443.669 190.608 445.797 191.584 447.269 193.536C448.773 195.488 449.525 198.112 449.525 201.408C449.525 205.056 449.477 207.456 449.381 208.608L449.141 211.824L448.997 213.888C448.933 214.528 448.677 215.04 448.229 215.424C447.781 215.808 447.253 216 446.645 216C446.005 216 445.445 215.792 444.965 215.376C444.485 214.928 444.245 214.336 444.245 213.6C444.245 213.088 444.357 211.312 444.581 208.272C444.741 206.192 444.821 204.56 444.821 203.376C444.821 200.656 444.437 198.656 443.669 197.376C442.901 196.064 441.717 195.408 440.117 195.408C438.965 195.408 437.765 195.76 436.517 196.464C435.301 197.168 434.149 198.064 433.061 199.152L433.157 205.968L433.205 213.6C433.205 214.336 432.965 214.928 432.485 215.376C432.005 215.792 431.445 216 430.805 216ZM455.402 213.696C455.338 211.296 455.338 207.616 455.402 202.656C455.498 197.696 455.546 194.448 455.546 192.912C455.546 192.24 455.77 191.68 456.218 191.232C456.698 190.752 457.274 190.512 457.946 190.512C458.618 190.512 459.178 190.752 459.626 191.232C460.106 191.68 460.346 192.24 460.346 192.912C460.346 194.448 460.298 197.68 460.202 202.608C460.138 207.536 460.138 211.2 460.202 213.6C460.202 214.272 459.978 214.848 459.53 215.328C459.082 215.808 458.522 216.048 457.85 216.048C457.178 216.048 456.602 215.824 456.122 215.376C455.642 214.928 455.402 214.368 455.402 213.696ZM459.866 182.208C460.41 182.752 460.682 183.424 460.682 184.224C460.682 185.024 460.41 185.696 459.866 186.24C459.322 186.784 458.65 187.056 457.85 187.056C457.05 187.056 456.378 186.784 455.834 186.24C455.29 185.696 455.018 185.024 455.018 184.224C455.018 183.424 455.29 182.752 455.834 182.208C456.378 181.664 457.05 181.392 457.85 181.392C458.682 181.36 459.354 181.632 459.866 182.208ZM469.148 216C468.508 216 467.948 215.792 467.468 215.376C466.988 214.928 466.748 214.336 466.748 213.6C466.748 211.072 466.732 208.896 466.7 207.072C466.636 201.632 466.604 196.912 466.604 192.912C466.604 192.176 466.828 191.6 467.276 191.184C467.724 190.768 468.268 190.56 468.908 190.56C469.58 190.56 470.156 190.784 470.636 191.232C471.148 191.648 471.404 192.24 471.404 193.008V194.496C473.388 191.904 475.996 190.608 479.228 190.608C482.012 190.608 484.14 191.584 485.612 193.536C487.116 195.488 487.868 198.112 487.868 201.408C487.868 205.056 487.82 207.456 487.724 208.608L487.484 211.824L487.34 213.888C487.276 214.528 487.02 215.04 486.572 215.424C486.124 215.808 485.596 216 484.988 216C484.348 216 483.788 215.792 483.308 215.376C482.828 214.928 482.588 214.336 482.588 213.6C482.588 213.088 482.7 211.312 482.924 208.272C483.084 206.192 483.164 204.56 483.164 203.376C483.164 200.656 482.78 198.656 482.012 197.376C481.244 196.064 480.06 195.408 478.46 195.408C477.308 195.408 476.108 195.76 474.86 196.464C473.644 197.168 472.492 198.064 471.404 199.152L471.5 205.968L471.548 213.6C471.548 214.336 471.308 214.928 470.828 215.376C470.348 215.792 469.788 216 469.148 216ZM504.594 225.84C502.738 226 500.946 225.792 499.218 225.216C497.522 224.64 496.114 223.632 494.994 222.192C494.578 221.648 494.226 220.976 493.938 220.176C493.682 219.376 493.714 218.672 494.034 218.064C494.354 217.488 494.818 217.104 495.426 216.912C496.066 216.72 496.674 216.784 497.25 217.104C497.858 217.424 498.258 217.888 498.45 218.496C498.514 218.752 498.594 219.088 498.69 219.504C498.786 219.952 499.138 220.384 499.746 220.8C501.186 221.312 502.77 221.536 504.498 221.472C506.066 221.408 507.266 221.072 508.098 220.464C508.93 219.888 509.458 219.216 509.682 218.448C510.002 217.36 510.258 215.632 510.45 213.264C509.234 214.544 507.394 215.312 504.93 215.568C502.818 215.664 500.914 215.376 499.218 214.704C497.554 214 496.226 213.008 495.234 211.728C494.274 210.448 493.57 209.024 493.122 207.456C492.674 205.952 492.514 204.064 492.642 201.792C492.898 198.272 494.274 195.44 496.77 193.296C499.554 191.088 502.914 190.304 506.85 190.944C508.29 191.424 509.426 192 510.258 192.672C510.29 191.392 510.898 190.608 512.082 190.32C512.85 190.256 513.458 190.432 513.906 190.848C514.386 191.264 514.674 191.792 514.77 192.432C515.122 196.336 515.33 201.104 515.394 206.736C515.426 209.936 515.33 212.608 515.106 214.752C514.85 217.952 514.098 220.336 512.85 221.904C511.602 223.504 510.354 224.512 509.106 224.928C507.858 225.376 506.354 225.68 504.594 225.84ZM504.594 210.672C505.778 210.704 506.69 210.56 507.33 210.24C509.186 209.664 510.258 208.144 510.546 205.68C510.706 203.792 510.626 201.984 510.306 200.256C510.082 199.168 509.426 198.224 508.338 197.424C507.698 196.912 506.882 196.576 505.89 196.416C503.33 195.968 501.362 196.352 499.986 197.568C498.674 198.624 497.922 200.176 497.73 202.224C497.57 204.912 498.098 207.008 499.314 208.512C500.562 209.984 502.322 210.704 504.594 210.672Z" fill="black"/>
</g>
<defs>
<clipPath id="clip0_5_27">
<rect width="720" height="400" fill="white"/>
</clipPath>
</defs>
</svg>
