<svg xmlns="http://www.w3.org/2000/svg" version="1.1" xmlns:xlink="http://www.w3.org/1999/xlink" xmlns:svgjs="http://svgjs.com/svgjs" width="512" height="512" x="0" y="0" viewBox="0 0 512 512" style="enable-background:new 0 0 512 512" xml:space="preserve" class=""><g><path fill="#4193d2" d="m506.47 103.61-.08-.76c-2.58-24.8-13.72-48.16-31.37-65.79-17.64-17.63-41.03-28.76-65.85-31.34C372.69 1.92 312.56 0 256.12 0S139.54 1.92 103.06 5.72C78.24 8.3 54.85 19.43 37.21 37.06S8.43 78.05 5.84 102.85l-.08.76C2.61 133.87.12 138.73.12 202.55s2.49 74.12 5.65 104.39l.08.76c2.58 24.8 13.72 48.17 31.37 65.79 17.64 17.63 41.03 28.76 65.85 31.34 20.13 2.09 47.46 3.62 77.39 4.56l58.08 92.23c8.72 13.84 28.91 13.84 37.63 0l58.13-92.31c28.95-.95 55.32-2.45 74.89-4.48 24.82-2.58 48.21-13.71 65.85-31.34s28.78-40.99 31.37-65.79l.08-.76c3.15-30.26 5.65-40.56 5.65-104.38s-2.49-68.67-5.65-98.94z" data-original="#4193d2"></path><path fill="#48a4df" d="M5.84 307.69c.62 5.98 1.75 11.87 3.34 17.62 34.47 15.42 72.65 24.02 112.85 24.02 152.79 0 276.65-123.86 276.65-276.65 0-23.69-2.99-46.68-8.59-68.63C353.67 1.36 303.59 0 256.12 0c-56.45 0-116.58 1.92-153.06 5.72C78.24 8.3 54.85 19.43 37.21 37.06S8.43 78.05 5.84 102.85l-.08.76C2.61 133.87.12 138.73.12 202.55s2.49 74.12 5.65 104.39l.08.76z" data-original="#48a4df"></path><path fill="#ffffff" d="M256.05 359.06c-18.76 0-33.97-15.2-33.97-33.94s15.21-33.94 33.97-33.94 33.97 15.19 33.97 33.94-15.21 33.94-33.97 33.94zm45.6-156.57c-22.48 17.58-22.89 29.84-22.89 51.1 0 7.77-4.09 16.76-24.12 16.76-16.76 0-22.48-6.13-22.48-27.39 0-35.15 15.53-51.91 27.39-62.13 13.49-11.45 36.38-24.12 36.38-46.19 0-18.8-16.35-27.8-36.79-27.8-41.69 0-32.7 31.48-54.78 31.48-11.04 0-24.53-7.36-24.53-23.3 0-22.07 25.34-54.78 80.53-54.78 52.32 0 87.07 29.02 87.07 67.45s-34.75 66.22-45.78 74.8z" data-original="#ffffff"></path></g></svg>