<svg xmlns="http://www.w3.org/2000/svg" version="1.1" xmlns:xlink="http://www.w3.org/1999/xlink" xmlns:svgjs="http://svgjs.com/svgjs" width="512" height="512" x="0" y="0" viewBox="0 0 512 512" style="enable-background:new 0 0 512 512" xml:space="preserve" class=""><g><path d="M204.8 81.067c0 14.933-11.733 26.667-26.667 26.667-5.333 0-10.667-2.133-14.933-4.267v58.667h-59.733c3.2-4.267 4.267-9.6 4.267-14.933 0-14.933-11.733-26.667-26.667-26.667S54.4 132.267 54.4 147.2c0 5.333 2.133 10.667 4.267 14.933H0V29.867C0 13.867 13.867 0 29.867 0h132.267v58.667c4.267-3.2 9.6-4.267 14.933-4.267 16 0 27.733 11.733 27.733 26.667z" style="" fill="#66c6b9" data-original="#66c6b9"></path><path d="M120.533 244.267c0 14.933 11.733 26.667 26.667 26.667 5.333 0 10.667-2.133 14.933-4.267v58.667H29.867c-16 0-29.867-13.867-29.867-29.867V162.133h58.667c-3.2-4.267-4.267-9.6-4.267-14.933 0-14.933 11.733-26.667 26.667-26.667s26.667 11.733 26.667 26.667c0 5.333-2.133 10.667-4.267 14.933h58.667V220.8c-4.267-3.2-9.6-4.267-14.933-4.267-14.934 0-26.668 12.8-26.668 27.734z" style="" fill="#ffd15c" data-original="#ffd15c"></path><path d="M325.333 162.133h-58.667c3.2 4.267 4.267 9.6 4.267 14.933 0 14.933-11.733 26.667-26.667 26.667S217.6 192 217.6 177.067c0-5.333 2.133-10.667 4.267-14.933H163.2v-58.667c4.267 3.2 9.6 4.267 14.933 4.267 14.933 0 26.667-11.733 26.667-26.667S193.067 54.4 178.133 54.4c-5.333 0-10.667 2.133-14.933 4.267V0h132.267c16 0 29.867 13.867 29.867 29.867v132.266h-.001z" style="" fill="#415a6b" data-original="#415a6b" class=""></path><path d="M512 453.333c-5.333-9.6-9.6-20.267-12.8-35.2-8.533-43.733-12.8-59.733-12.8-59.733s-2.133-33.067-40.533-50.133c-39.467-17.067-76.8-43.733-115.2-29.867s-59.733 33.067-61.867 40.533c-1.067 5.333 1.067 9.6 5.333 12.8h5.333s-4.267 6.4 2.133 18.133c0 0 12.8 16 32 30.933 19.2 16 26.667 38.4 28.8 44.8 1.067 6.4 6.4 52.267 46.933 86.4H512v-58.666z" style="" fill="#ffd15c" data-original="#ffd15c"></path><path d="M279.467 331.733C284.8 322.133 293.333 320 304 320c8.533 0 17.067 2.133 25.6 6.4 12.8 6.4 23.467 16 32 26.667 4.267 5.333 7.467 10.667 13.867 12.8 6.4 2.133 12.8-1.067 18.133-3.2 1.067 0 2.133-1.067 3.2-2.133 4.267-4.267 1.067-9.6 0-13.867-1.067-6.4 2.133-12.8 7.467-14.933l-9.6 6.4c-1.067 0-1.067 1.067-2.133 1.067-2.133 0-2.133-2.133-2.133-4.267 1.067-8.533 5.333-16 10.667-22.4-5.333 8.533-16 10.667-24.533 9.6-5.333-1.067-10.667-3.2-13.867-7.467-3.2-3.2-4.267-8.533-4.267-12.8 0-4.267 0-9.6 1.067-13.867-4.267 7.467-4.267 12.8-5.333 20.267-2.133 6.4-16 5.333-18.133 5.333-10.667 0-20.267-8.533-23.467-19.2 1.067 7.467 3.2 13.867 6.4 20.267-6.4-2.133-12.8-4.267-19.2-3.2-1.067 0-3.2 1.067-4.267 1.067-9.601 4.266-14.935 11.733-16.001 19.199z" style="" fill="#f7b64c" data-original="#f7b64c"></path><path d="M349.867 201.6v132.267c0 16-13.867 29.867-29.867 29.867H186.667v-58.667c-4.267 3.2-9.6 4.267-14.933 4.267-14.933 0-26.667-11.733-26.667-26.667S156.8 256 171.733 256c5.333 0 10.667 2.133 14.933 4.267V201.6h58.667c-3.2 4.267-4.267 9.6-4.267 14.933 0 14.933 11.733 26.667 26.667 26.667 14.933 0 26.667-11.733 26.667-26.667 0-5.333-2.133-10.667-4.267-14.933h59.734z" style="" fill="#f3705a" data-original="#f3705a"></path><path d="M328.533 326.4c-7.467-4.267-16-6.4-25.6-6.4-10.667 0-18.133 2.133-24.533 11.733 0 0-4.267 6.4 2.133 18.133 0 0 12.8 16 32 30.933 7.467 6.4 12.8 12.8 17.067 20.267h20.267l23.467-35.2c-6.4-2.133-9.6-7.467-13.867-12.8C352 341.333 341.333 332.8 328.533 326.4z" style="" fill="#ffd15c" data-original="#ffd15c"></path><path d="M299.733 356.267c3.2-5.333 10.667-16 14.933-21.333 2.133-2.133 2.133-6.4 0-8.533-4.267-3.2-13.867-10.667-24.533-6.4s-17.067 20.267-3.2 32l8.533 5.333c1.067 1.066 3.201-.001 4.267-1.067z" style="" fill="#e8eae9" data-original="#e8eae9"></path></g></svg> 
