<svg xmlns="http://www.w3.org/2000/svg" version="1.1" xmlns:xlink="http://www.w3.org/1999/xlink" xmlns:svgjs="http://svgjs.com/svgjs" width="512" height="512" x="0" y="0" viewBox="0 0 511.935 511.935" style="enable-background:new 0 0 512 512" xml:space="preserve"><g><path d="M477.642 383.952c3.569-6.183 5.788-13.15 5.788-19.406V147.389c0-6.256-2.215-13.221-5.786-19.404l-147.4 13.28-101.4 114.703 80.581 114.922 168.217 13.062z" style="" fill="#00599c" data-original="#00599c"></path><path d="m275.666 507.243 188.065-108.578c5.417-3.128 10.341-8.529 13.911-14.714L255.968 255.968l-145.887 5.156-75.787 122.829c3.569 6.183 8.495 11.586 13.911 14.712l188.064 108.578c10.834 6.256 28.564 6.256 39.397 0z" style="" fill="#004482" data-original="#004482"></path><path d="M477.643 127.983c-3.571-6.185-8.496-11.586-13.912-14.714L275.666 4.692c-10.833-6.256-28.563-6.256-39.397 0L48.205 113.27c-10.835 6.254-19.698 21.609-19.698 34.119v217.157c0 6.256 2.217 13.223 5.788 19.406l221.674-127.984 221.674-127.985z" style="" fill="#659ad2" data-original="#659ad2"></path><path d="M255.968 407.609c-83.615 0-151.641-68.026-151.641-151.641s68.026-151.641 151.641-151.641c53.954 0 104.274 29.035 131.32 75.773l-65.626 37.976c-13.536-23.394-38.71-37.928-65.693-37.928-41.808 0-75.821 34.012-75.821 75.82 0 41.807 34.012 75.82 75.821 75.82 26.986 0 52.16-14.534 65.698-37.932l65.626 37.974c-27.047 46.743-77.368 75.779-131.325 75.779z" style="" fill="#ffffff" data-original="#ffffff"></path><path d="M407.609 247.543h-16.85v-16.848h-16.847v16.848h-16.85v16.849h16.85v16.85h16.847v-16.85h16.85zM470.792 247.543h-16.85v-16.848h-16.847v16.848h-16.85v16.849h16.85v16.85h16.847v-16.85h16.85z" style="" fill="#ffffff" data-original="#ffffff"></path></g></svg>