<svg xmlns="http://www.w3.org/2000/svg" version="1.1" xmlns:xlink="http://www.w3.org/1999/xlink" xmlns:svgjs="http://svgjs.com/svgjs" width="512" height="512" x="0" y="0" viewBox="0 0 32 32" style="enable-background:new 0 0 512 512" xml:space="preserve" class=""><g><g fill="#2c96ff"><path d="M16 1C7.72 1 1 7.72 1 16s6.72 15 15 15 15-6.72 15-15S24.28 1 16 1zm7.58 8.72-3.59 8.72c-.29.7-.85 1.26-1.55 1.55l-8.72 3.59c-.81.33-1.63-.49-1.3-1.3l3.59-8.72c.29-.7.85-1.26 1.55-1.55l8.72-3.59c.81-.33 1.63.49 1.3 1.3z" fill="#2c96ff" data-original="#2c96ff" class=""></path><circle cx="16" cy="16" r="2" fill="#2c96ff" data-original="#2c96ff" class=""></circle></g></g></svg>