<svg xmlns="http://www.w3.org/2000/svg" version="1.1" xmlns:xlink="http://www.w3.org/1999/xlink" xmlns:svgjs="http://svgjs.com/svgjs" width="512" height="512" x="0" y="0" viewBox="0 0 512 512" style="enable-background:new 0 0 512 512" xml:space="preserve" class=""><g><path d="M475.425 200.225 262.092 4.669c-6.951-6.359-17.641-6.204-24.397.35L36.213 200.574a17.788 17.788 0 0 0-5.399 12.758v280.889c0 9.819 7.958 17.778 17.778 17.778H196.74c9.819 0 17.778-7.959 17.778-17.778v-130.37h82.963v130.37c0 9.819 7.958 17.778 17.778 17.778h148.148c9.819 0 17.778-7.953 17.778-17.778V213.333c0-4.984-2.086-9.736-5.76-13.108zm-29.796 276.219H333.037v-130.37c0-9.819-7.959-17.778-17.778-17.778H196.741c-9.819 0-17.778 7.959-17.778 17.778v130.37H66.37V220.853L250.424 42.216 445.63 221.155v255.289z" fill="#616161" data-original="#000000" class=""></path></g></svg>