 
<svg xmlns="http://www.w3.org/2000/svg" version="1.1" xmlns:xlink="http://www.w3.org/1999/xlink" xmlns:svgjs="http://svgjs.com/svgjs" width="512" height="512" x="0" y="0" viewBox="0 0 24 24" style="enable-background:new 0 0 512 512" xml:space="preserve" class=""><g><linearGradient id="a" x1="11.999" x2="11.999" y1="2.014" y2="22.014" gradientUnits="userSpaceOnUse"><stop offset="0" stop-color="#a3a3ff"></stop><stop offset="1" stop-color="#1f1fff"></stop></linearGradient><path fill="url(#a)" d="M11.999 2.014c-5.523 0-10 4.477-10 10s4.477 10 10 10 10-4.477 10-10-4.477-10-10-10zm0 5a1 1 0 1 1 0 2 1 1 0 0 1 0-2zm0 3a1 1 0 0 1 1 1v5a1 1 0 0 1-2 0v-5a1 1 0 0 1 1-1z" data-original="url(#a)" class=""></path></g></svg>