<svg xmlns="http://www.w3.org/2000/svg" version="1.1" xmlns:xlink="http://www.w3.org/1999/xlink" xmlns:svgjs="http://svgjs.com/svgjs" width="512" height="512" x="0" y="0" viewBox="0 0 32 32" style="enable-background:new 0 0 512 512" xml:space="preserve" class=""><g><path d="M11.57 23a1 1 0 0 1-.68-.27 9.28 9.28 0 0 1 0-13.46 1 1 0 0 1 1.36 1.46 7.3 7.3 0 0 0 0 10.54 1 1 0 0 1-.68 1.73zm-4 2.68a1 1 0 0 0 0-1.41 11.43 11.43 0 0 1 0-16.54 1 1 0 1 0-1.41-1.46 13.44 13.44 0 0 0 0 19.46 1 1 0 0 0 1.42-.05zm13.53-2.95a9.28 9.28 0 0 0 0-13.46 1 1 0 1 0-1.37 1.46 7.27 7.27 0 0 1 0 10.54 1 1 0 0 0-.05 1.41 1 1 0 0 0 .74.32 1 1 0 0 0 .68-.27zm4.72 3a13.41 13.41 0 0 0 0-19.46 1 1 0 0 0-1.36 1.46 11.43 11.43 0 0 1 0 16.54 1 1 0 0 0-.05 1.41 1 1 0 0 0 .73.32 1 1 0 0 0 .68-.27zM18 16a2 2 0 1 0-2 2 2 2 0 0 0 2-2z" data-name="Layer 11" fill="#000000" data-original="#000000" class=""></path></g></svg>