<svg xmlns="http://www.w3.org/2000/svg" version="1.1" xmlns:xlink="http://www.w3.org/1999/xlink" xmlns:svgjs="http://svgjs.com/svgjs" width="512" height="512" x="0" y="0" viewBox="0 0 512 512" style="enable-background:new 0 0 512 512" xml:space="preserve" class=""><g><linearGradient id="a" x1="256" x2="256" y1="496" y2="16" gradientUnits="userSpaceOnUse"><stop offset="0" stop-color="#1751ff"></stop><stop offset="1" stop-color="#17a0ff"></stop></linearGradient><path fill="url(#a)" fill-rule="evenodd" d="M322.436 183.972v-48.388c0-36.539-29.896-66.436-66.436-66.436s-66.436 29.896-66.436 66.436v48.388h-53.148v-48.387c0-65.771 53.813-119.584 119.584-119.584s119.584 53.813 119.584 119.584v48.387zm118.937 66.54v203.949c0 22.847-18.693 41.54-41.54 41.54H112.167c-22.847 0-41.54-18.693-41.54-41.54v-203.95c0-22.847 18.693-41.54 41.54-41.54h287.666c22.847 0 41.54 18.693 41.54 41.54zm-150.439 70.091c0-19.293-15.64-34.934-34.934-34.934s-34.934 15.641-34.934 34.934c0 11.871 5.923 22.357 14.972 28.67v50.071c0 10.98 8.982 19.962 19.962 19.962s19.962-8.983 19.962-19.962v-50.072c9.05-6.313 14.971-16.799 14.971-28.669z" data-original="url(#a)" class=""></path></g></svg> 
