<svg xmlns="http://www.w3.org/2000/svg" version="1.1" xmlns:xlink="http://www.w3.org/1999/xlink" xmlns:svgjs="http://svgjs.com/svgjs" width="512" height="512" x="0" y="0" viewBox="0 0 24 24" style="enable-background:new 0 0 512 512" xml:space="preserve" class=""><g><path d="m1.293 12.707 4 4a1 1 0 1 0 1.414-1.414L3.414 12l3.293-3.293a1 1 0 1 0-1.414-1.414l-4 4a1 1 0 0 0 0 1.414zM18.707 7.293a1 1 0 1 0-1.414 1.414L20.586 12l-3.293 3.293a1 1 0 1 0 1.414 1.414l4-4a1 1 0 0 0 0-1.414zM13.039 4.726l-4 14a1 1 0 0 0 .686 1.236A1.053 1.053 0 0 0 10 20a1 1 0 0 0 .961-.726l4-14a1 1 0 1 0-1.922-.548z" fill="#ffffff" data-original="#000000" class=""></path></g></svg>