<svg width="1920" height="1080" viewBox="0 0 1920 1080" fill="none" xmlns="http://www.w3.org/2000/svg">
<rect width="1920" height="1080" fill="white"/>
<path d="M785 490C757.386 490 735 512.386 735 540C735 567.614 757.386 590 785 590C812.614 590 835 567.614 835 540C834.969 512.399 812.601 490.031 785 490Z" fill="#2196F3"/>
<path d="M789.613 506.757C787.066 504.211 782.938 504.211 780.391 506.757L756.304 530.869C752.455 534.72 752.455 540.962 756.304 544.813C760.205 548.54 766.347 548.54 770.248 544.813L774.161 540.9V566.087C774.161 572.09 779.027 576.956 785.03 576.956C791.033 576.956 795.9 572.09 795.9 566.087V540.9L799.813 544.813C803.713 548.54 809.856 548.54 813.756 544.813C817.606 540.962 817.606 534.72 813.756 530.869L789.613 506.757Z" fill="#FAFAFA"/>
<path d="M878.984 562.096C874.824 562.16 871.864 562.144 870.104 562.048C869.496 562.016 868.968 561.792 868.52 561.376C868.072 560.928 867.832 560.384 867.8 559.744C867.768 559.584 867.752 559.44 867.752 559.312C867.72 557.488 867.64 553.184 867.512 546.4C867.384 539.616 867.32 534.08 867.32 529.792C867.32 529.12 867.544 528.56 867.992 528.112C868.472 527.632 869.048 527.392 869.72 527.392C870.392 527.392 870.952 527.632 871.4 528.112C871.88 528.56 872.12 529.12 872.12 529.792C872.12 533.024 872.136 536.128 872.168 539.104C872.232 542.08 872.296 545.36 872.36 548.944C872.456 552.496 872.504 555.28 872.504 557.296C874.168 557.328 876.712 557.312 880.136 557.248C883.592 557.184 886.216 557.168 888.008 557.2C888.68 557.2 889.24 557.44 889.688 557.92C890.136 558.4 890.36 558.976 890.36 559.648C890.36 560.32 890.12 560.88 889.64 561.328C889.16 561.776 888.584 562 887.912 562C886.184 561.968 883.208 562 878.984 562.096ZM904.132 562.24C901.764 562.08 899.7 561.6 897.94 560.8C896.18 560 894.836 558.992 893.908 557.776C892.98 556.56 892.308 555.44 891.892 554.416C891.476 553.392 891.22 552.384 891.124 551.392C891.028 550.368 891.076 549.056 891.268 547.456C891.492 546.112 891.956 544.784 892.66 543.472C893.396 542.16 894.356 540.992 895.54 539.968C896.756 538.912 898.212 538.112 899.908 537.568C901.604 536.992 903.412 536.816 905.332 537.04C907.188 537.264 908.772 537.776 910.084 538.576C911.396 539.344 912.516 540.336 913.444 541.552C914.244 542.576 914.724 543.344 914.884 543.856C915.076 544.368 915.236 544.848 915.364 545.296C915.524 545.744 915.652 546.128 915.748 546.448C915.844 546.768 915.924 547.104 915.988 547.456C916.084 547.776 916.148 548.16 916.18 548.608C916.212 549.216 916.1 549.776 915.844 550.288C915.588 550.8 915.204 551.2 914.692 551.488C914.276 551.648 913.828 551.728 913.348 551.728L905.14 551.872C899.38 551.904 896.5 551.968 896.5 552.064H896.356C896.772 553.696 897.636 554.976 898.948 555.904C900.292 556.832 902.116 557.376 904.42 557.536C905.668 557.6 906.708 557.536 907.54 557.344C908.468 557.088 909.14 556.864 909.556 556.672C909.972 556.448 910.484 556.16 911.092 555.808C911.7 555.584 912.308 555.616 912.916 555.904C913.524 556.192 913.94 556.64 914.164 557.248C914.388 557.856 914.356 558.448 914.068 559.024C913.812 559.6 913.396 560.048 912.82 560.368C912.308 560.656 911.78 560.912 911.236 561.136C910.692 561.328 909.892 561.568 908.836 561.856C907.78 562.144 906.212 562.272 904.132 562.24ZM896.452 547.36C898.308 547.264 903.124 547.168 910.9 547.072C910.612 546.112 910.148 545.2 909.508 544.336C908.228 542.864 906.644 542.016 904.756 541.792C902.772 541.536 901.028 541.968 899.524 543.088C898.02 544.176 896.996 545.6 896.452 547.36ZM934.073 561.232C932.921 561.68 931.609 561.936 930.137 562C928.697 562.064 927.353 561.904 926.105 561.52C924.857 561.104 923.753 560.48 922.793 559.648C921.129 558.272 920.057 556.56 919.577 554.512C919.097 552.464 919.081 550.624 919.529 548.992C919.977 547.36 920.649 545.776 921.545 544.24C922.473 542.672 923.465 541.36 924.521 540.304C925.609 539.216 926.857 538.304 928.265 537.568C929.673 536.832 931.145 536.48 932.681 536.512C934.217 536.512 935.833 536.928 937.529 537.76C937.785 537.888 938.057 538.08 938.345 538.336C938.665 538.592 938.937 538.816 939.161 539.008L939.785 539.632C939.977 539.824 940.073 539.936 940.073 539.968C940.585 540.416 940.857 540.992 940.889 541.696C941.305 543.616 941.577 545.632 941.705 547.744C941.833 549.856 941.865 551.84 941.801 553.696C941.769 555.552 941.801 557.52 941.897 559.6C941.929 560.24 941.721 560.8 941.273 561.28C940.825 561.76 940.265 562.016 939.593 562.048C938.921 562.08 938.345 561.872 937.865 561.424C937.385 560.976 937.129 560.432 937.097 559.792V559.072C936.137 560.064 935.129 560.784 934.073 561.232ZM931.913 556.912C932.393 556.784 932.777 556.656 933.065 556.528C933.353 556.4 933.705 556.208 934.121 555.952C934.569 555.696 935.033 555.376 935.513 554.992C935.993 554.608 936.425 554.128 936.809 553.552C936.873 553.488 936.953 553.424 937.049 553.36C937.049 549.04 936.777 545.568 936.233 542.944C936.137 542.816 936.025 542.704 935.897 542.608C935.801 542.48 935.721 542.384 935.657 542.32C935.625 542.256 935.561 542.208 935.465 542.176C935.401 542.112 935.321 542.048 935.225 541.984C933.689 541.152 932.073 541.136 930.377 541.936C928.681 542.704 927.193 544.16 925.913 546.304C924.633 548.48 923.993 550.384 923.993 552.016C924.025 553.616 924.649 554.944 925.865 556C926.601 556.608 927.513 556.992 928.601 557.152C929.689 557.312 930.793 557.232 931.913 556.912ZM950.461 562C949.821 562 949.261 561.792 948.781 561.376C948.301 560.928 948.061 560.336 948.061 559.6L947.965 549.808C947.933 547.6 947.917 544.848 947.917 541.552V538.72C947.917 537.984 948.141 537.408 948.589 536.992C949.037 536.576 949.581 536.368 950.221 536.368C950.893 536.368 951.469 536.592 951.949 537.04C952.461 537.456 952.717 538.048 952.717 538.816V540.256C953.069 539.488 953.725 538.832 954.685 538.288C955.997 537.488 957.437 537.088 959.005 537.088C960.189 537.088 961.101 537.28 961.741 537.664C962.381 538.048 962.701 538.736 962.701 539.728C962.701 540.368 962.509 540.912 962.125 541.36C961.741 541.776 961.181 541.984 960.445 541.984C957.757 541.984 955.901 542.352 954.877 543.088C954.301 543.472 953.789 543.936 953.341 544.48C952.925 545.024 952.717 545.552 952.717 546.064L952.813 552.064L952.861 559.6C952.861 560.336 952.621 560.928 952.141 561.376C951.661 561.792 951.101 562 950.461 562ZM967.805 562C967.165 562 966.605 561.792 966.125 561.376C965.645 560.928 965.405 560.336 965.405 559.6C965.405 557.072 965.389 554.896 965.357 553.072C965.293 547.632 965.261 542.912 965.261 538.912C965.261 538.176 965.485 537.6 965.933 537.184C966.381 536.768 966.925 536.56 967.565 536.56C968.237 536.56 968.813 536.784 969.293 537.232C969.805 537.648 970.061 538.24 970.061 539.008V540.496C972.045 537.904 974.653 536.608 977.885 536.608C980.669 536.608 982.797 537.584 984.269 539.536C985.773 541.488 986.525 544.112 986.525 547.408C986.525 551.056 986.477 553.456 986.381 554.608L986.141 557.824L985.997 559.888C985.933 560.528 985.677 561.04 985.229 561.424C984.781 561.808 984.253 562 983.645 562C983.005 562 982.445 561.792 981.965 561.376C981.485 560.928 981.245 560.336 981.245 559.6C981.245 559.088 981.357 557.312 981.581 554.272C981.741 552.192 981.821 550.56 981.821 549.376C981.821 546.656 981.437 544.656 980.669 543.376C979.901 542.064 978.717 541.408 977.117 541.408C975.965 541.408 974.765 541.76 973.517 542.464C972.301 543.168 971.149 544.064 970.061 545.152L970.157 551.968L970.205 559.6C970.205 560.336 969.965 560.928 969.485 561.376C969.005 561.792 968.445 562 967.805 562ZM992.402 559.696C992.338 557.296 992.338 553.616 992.402 548.656C992.498 543.696 992.546 540.448 992.546 538.912C992.546 538.24 992.77 537.68 993.218 537.232C993.698 536.752 994.274 536.512 994.946 536.512C995.618 536.512 996.178 536.752 996.626 537.232C997.106 537.68 997.346 538.24 997.346 538.912C997.346 540.448 997.298 543.68 997.202 548.608C997.138 553.536 997.138 557.2 997.202 559.6C997.202 560.272 996.978 560.848 996.53 561.328C996.082 561.808 995.522 562.048 994.85 562.048C994.178 562.048 993.602 561.824 993.122 561.376C992.642 560.928 992.402 560.368 992.402 559.696ZM996.866 528.208C997.41 528.752 997.682 529.424 997.682 530.224C997.682 531.024 997.41 531.696 996.866 532.24C996.322 532.784 995.65 533.056 994.85 533.056C994.05 533.056 993.378 532.784 992.834 532.24C992.29 531.696 992.018 531.024 992.018 530.224C992.018 529.424 992.29 528.752 992.834 528.208C993.378 527.664 994.05 527.392 994.85 527.392C995.682 527.36 996.354 527.632 996.866 528.208ZM1006.15 562C1005.51 562 1004.95 561.792 1004.47 561.376C1003.99 560.928 1003.75 560.336 1003.75 559.6C1003.75 557.072 1003.73 554.896 1003.7 553.072C1003.64 547.632 1003.6 542.912 1003.6 538.912C1003.6 538.176 1003.83 537.6 1004.28 537.184C1004.72 536.768 1005.27 536.56 1005.91 536.56C1006.58 536.56 1007.16 536.784 1007.64 537.232C1008.15 537.648 1008.4 538.24 1008.4 539.008V540.496C1010.39 537.904 1013 536.608 1016.23 536.608C1019.01 536.608 1021.14 537.584 1022.61 539.536C1024.12 541.488 1024.87 544.112 1024.87 547.408C1024.87 551.056 1024.82 553.456 1024.72 554.608L1024.48 557.824L1024.34 559.888C1024.28 560.528 1024.02 561.04 1023.57 561.424C1023.12 561.808 1022.6 562 1021.99 562C1021.35 562 1020.79 561.792 1020.31 561.376C1019.83 560.928 1019.59 560.336 1019.59 559.6C1019.59 559.088 1019.7 557.312 1019.92 554.272C1020.08 552.192 1020.16 550.56 1020.16 549.376C1020.16 546.656 1019.78 544.656 1019.01 543.376C1018.24 542.064 1017.06 541.408 1015.46 541.408C1014.31 541.408 1013.11 541.76 1011.86 542.464C1010.64 543.168 1009.49 544.064 1008.4 545.152L1008.5 551.968L1008.55 559.6C1008.55 560.336 1008.31 560.928 1007.83 561.376C1007.35 561.792 1006.79 562 1006.15 562ZM1041.59 571.84C1039.74 572 1037.95 571.792 1036.22 571.216C1034.52 570.64 1033.11 569.632 1031.99 568.192C1031.58 567.648 1031.23 566.976 1030.94 566.176C1030.68 565.376 1030.71 564.672 1031.03 564.064C1031.35 563.488 1031.82 563.104 1032.43 562.912C1033.07 562.72 1033.67 562.784 1034.25 563.104C1034.86 563.424 1035.26 563.888 1035.45 564.496C1035.51 564.752 1035.59 565.088 1035.69 565.504C1035.79 565.952 1036.14 566.384 1036.75 566.8C1038.19 567.312 1039.77 567.536 1041.5 567.472C1043.07 567.408 1044.27 567.072 1045.1 566.464C1045.93 565.888 1046.46 565.216 1046.68 564.448C1047 563.36 1047.26 561.632 1047.45 559.264C1046.23 560.544 1044.39 561.312 1041.93 561.568C1039.82 561.664 1037.91 561.376 1036.22 560.704C1034.55 560 1033.23 559.008 1032.23 557.728C1031.27 556.448 1030.57 555.024 1030.12 553.456C1029.67 551.952 1029.51 550.064 1029.64 547.792C1029.9 544.272 1031.27 541.44 1033.77 539.296C1036.55 537.088 1039.91 536.304 1043.85 536.944C1045.29 537.424 1046.43 538 1047.26 538.672C1047.29 537.392 1047.9 536.608 1049.08 536.32C1049.85 536.256 1050.46 536.432 1050.91 536.848C1051.39 537.264 1051.67 537.792 1051.77 538.432C1052.12 542.336 1052.33 547.104 1052.39 552.736C1052.43 555.936 1052.33 558.608 1052.11 560.752C1051.85 563.952 1051.1 566.336 1049.85 567.904C1048.6 569.504 1047.35 570.512 1046.11 570.928C1044.86 571.376 1043.35 571.68 1041.59 571.84ZM1041.59 556.672C1042.78 556.704 1043.69 556.56 1044.33 556.24C1046.19 555.664 1047.26 554.144 1047.55 551.68C1047.71 549.792 1047.63 547.984 1047.31 546.256C1047.08 545.168 1046.43 544.224 1045.34 543.424C1044.7 542.912 1043.88 542.576 1042.89 542.416C1040.33 541.968 1038.36 542.352 1036.99 543.568C1035.67 544.624 1034.92 546.176 1034.73 548.224C1034.57 550.912 1035.1 553.008 1036.31 554.512C1037.56 555.984 1039.32 556.704 1041.59 556.672Z" fill="black"/>
</svg>
