<svg width="720" height="400" viewBox="0 0 720 400" fill="none" xmlns="http://www.w3.org/2000/svg">
<g clip-path="url(#clip0_5_27)">
<rect width="1987" height="1543" transform="translate(-546 -348)" fill="white"/>
<path d="M239 142C211.386 142 189 164.386 189 192C189 219.614 211.386 242 239 242C266.614 242 289 219.614 289 192C288.969 164.399 266.601 142.031 239 142Z" fill="#2196F3"/>
<path d="M243.613 158.757C241.066 156.211 236.938 156.211 234.391 158.757L210.304 182.87C206.455 186.72 206.455 192.962 210.304 196.813C214.205 200.54 220.347 200.54 224.248 196.813L228.161 192.9V218.087C228.161 224.09 233.027 228.956 239.03 228.956C245.033 228.956 249.9 224.09 249.9 218.087V192.9L253.813 196.813C257.713 200.54 263.856 200.54 267.756 196.813C271.606 192.962 271.606 186.72 267.756 182.87L243.613 158.757Z" fill="#FAFAFA"/>
<path d="M332.984 214.096C328.824 214.16 325.864 214.144 324.104 214.048C323.496 214.016 322.968 213.792 322.52 213.376C322.072 212.928 321.832 212.384 321.8 211.744C321.768 211.584 321.752 211.44 321.752 211.312C321.72 209.488 321.64 205.184 321.512 198.4C321.384 191.616 321.32 186.08 321.32 181.792C321.32 181.12 321.544 180.56 321.992 180.112C322.472 179.632 323.048 179.392 323.72 179.392C324.392 179.392 324.952 179.632 325.4 180.112C325.88 180.56 326.12 181.12 326.12 181.792C326.12 185.024 326.136 188.128 326.168 191.104C326.232 194.08 326.296 197.36 326.36 200.944C326.456 204.496 326.504 207.28 326.504 209.296C328.168 209.328 330.712 209.312 334.136 209.248C337.592 209.184 340.216 209.168 342.008 209.2C342.68 209.2 343.24 209.44 343.688 209.92C344.136 210.4 344.36 210.976 344.36 211.648C344.36 212.32 344.12 212.88 343.64 213.328C343.16 213.776 342.584 214 341.912 214C340.184 213.968 337.208 214 332.984 214.096ZM358.132 214.24C355.764 214.08 353.7 213.6 351.94 212.8C350.18 212 348.836 210.992 347.908 209.776C346.98 208.56 346.308 207.44 345.892 206.416C345.476 205.392 345.22 204.384 345.124 203.392C345.028 202.368 345.076 201.056 345.268 199.456C345.492 198.112 345.956 196.784 346.66 195.472C347.396 194.16 348.356 192.992 349.54 191.968C350.756 190.912 352.212 190.112 353.908 189.568C355.604 188.992 357.412 188.816 359.332 189.04C361.188 189.264 362.772 189.776 364.084 190.576C365.396 191.344 366.516 192.336 367.444 193.552C368.244 194.576 368.724 195.344 368.884 195.856C369.076 196.368 369.236 196.848 369.364 197.296C369.524 197.744 369.652 198.128 369.748 198.448C369.844 198.768 369.924 199.104 369.988 199.456C370.084 199.776 370.148 200.16 370.18 200.608C370.212 201.216 370.1 201.776 369.844 202.288C369.588 202.8 369.204 203.2 368.692 203.488C368.276 203.648 367.828 203.728 367.348 203.728L359.14 203.872C353.38 203.904 350.5 203.968 350.5 204.064H350.356C350.772 205.696 351.636 206.976 352.948 207.904C354.292 208.832 356.116 209.376 358.42 209.536C359.668 209.6 360.708 209.536 361.54 209.344C362.468 209.088 363.14 208.864 363.556 208.672C363.972 208.448 364.484 208.16 365.092 207.808C365.7 207.584 366.308 207.616 366.916 207.904C367.524 208.192 367.94 208.64 368.164 209.248C368.388 209.856 368.356 210.448 368.068 211.024C367.812 211.6 367.396 212.048 366.82 212.368C366.308 212.656 365.78 212.912 365.236 213.136C364.692 213.328 363.892 213.568 362.836 213.856C361.78 214.144 360.212 214.272 358.132 214.24ZM350.452 199.36C352.308 199.264 357.124 199.168 364.9 199.072C364.612 198.112 364.148 197.2 363.508 196.336C362.228 194.864 360.644 194.016 358.756 193.792C356.772 193.536 355.028 193.968 353.524 195.088C352.02 196.176 350.996 197.6 350.452 199.36ZM388.073 213.232C386.921 213.68 385.609 213.936 384.137 214C382.697 214.064 381.353 213.904 380.105 213.52C378.857 213.104 377.753 212.48 376.793 211.648C375.129 210.272 374.057 208.56 373.577 206.512C373.097 204.464 373.081 202.624 373.529 200.992C373.977 199.36 374.649 197.776 375.545 196.24C376.473 194.672 377.465 193.36 378.521 192.304C379.609 191.216 380.857 190.304 382.265 189.568C383.673 188.832 385.145 188.48 386.681 188.512C388.217 188.512 389.833 188.928 391.529 189.76C391.785 189.888 392.057 190.08 392.345 190.336C392.665 190.592 392.937 190.816 393.161 191.008L393.785 191.632C393.977 191.824 394.073 191.936 394.073 191.968C394.585 192.416 394.857 192.992 394.889 193.696C395.305 195.616 395.577 197.632 395.705 199.744C395.833 201.856 395.865 203.84 395.801 205.696C395.769 207.552 395.801 209.52 395.897 211.6C395.929 212.24 395.721 212.8 395.273 213.28C394.825 213.76 394.265 214.016 393.593 214.048C392.921 214.08 392.345 213.872 391.865 213.424C391.385 212.976 391.129 212.432 391.097 211.792V211.072C390.137 212.064 389.129 212.784 388.073 213.232ZM385.913 208.912C386.393 208.784 386.777 208.656 387.065 208.528C387.353 208.4 387.705 208.208 388.121 207.952C388.569 207.696 389.033 207.376 389.513 206.992C389.993 206.608 390.425 206.128 390.809 205.552C390.873 205.488 390.953 205.424 391.049 205.36C391.049 201.04 390.777 197.568 390.233 194.944C390.137 194.816 390.025 194.704 389.897 194.608C389.801 194.48 389.721 194.384 389.657 194.32C389.625 194.256 389.561 194.208 389.465 194.176C389.401 194.112 389.321 194.048 389.225 193.984C387.689 193.152 386.073 193.136 384.377 193.936C382.681 194.704 381.193 196.16 379.913 198.304C378.633 200.48 377.993 202.384 377.993 204.016C378.025 205.616 378.649 206.944 379.865 208C380.601 208.608 381.513 208.992 382.601 209.152C383.689 209.312 384.793 209.232 385.913 208.912ZM404.461 214C403.821 214 403.261 213.792 402.781 213.376C402.301 212.928 402.061 212.336 402.061 211.6L401.965 201.808C401.933 199.6 401.917 196.848 401.917 193.552V190.72C401.917 189.984 402.141 189.408 402.589 188.992C403.037 188.576 403.581 188.368 404.221 188.368C404.893 188.368 405.469 188.592 405.949 189.04C406.461 189.456 406.717 190.048 406.717 190.816V192.256C407.069 191.488 407.725 190.832 408.685 190.288C409.997 189.488 411.437 189.088 413.005 189.088C414.189 189.088 415.101 189.28 415.741 189.664C416.381 190.048 416.701 190.736 416.701 191.728C416.701 192.368 416.509 192.912 416.125 193.36C415.741 193.776 415.181 193.984 414.445 193.984C411.757 193.984 409.901 194.352 408.877 195.088C408.301 195.472 407.789 195.936 407.341 196.48C406.925 197.024 406.717 197.552 406.717 198.064L406.813 204.064L406.861 211.6C406.861 212.336 406.621 212.928 406.141 213.376C405.661 213.792 405.101 214 404.461 214ZM421.805 214C421.165 214 420.605 213.792 420.125 213.376C419.645 212.928 419.405 212.336 419.405 211.6C419.405 209.072 419.389 206.896 419.357 205.072C419.293 199.632 419.261 194.912 419.261 190.912C419.261 190.176 419.485 189.6 419.933 189.184C420.381 188.768 420.925 188.56 421.565 188.56C422.237 188.56 422.813 188.784 423.293 189.232C423.805 189.648 424.061 190.24 424.061 191.008V192.496C426.045 189.904 428.653 188.608 431.885 188.608C434.669 188.608 436.797 189.584 438.269 191.536C439.773 193.488 440.525 196.112 440.525 199.408C440.525 203.056 440.477 205.456 440.381 206.608L440.141 209.824L439.997 211.888C439.933 212.528 439.677 213.04 439.229 213.424C438.781 213.808 438.253 214 437.645 214C437.005 214 436.445 213.792 435.965 213.376C435.485 212.928 435.245 212.336 435.245 211.6C435.245 211.088 435.357 209.312 435.581 206.272C435.741 204.192 435.821 202.56 435.821 201.376C435.821 198.656 435.437 196.656 434.669 195.376C433.901 194.064 432.717 193.408 431.117 193.408C429.965 193.408 428.765 193.76 427.517 194.464C426.301 195.168 425.149 196.064 424.061 197.152L424.157 203.968L424.205 211.6C424.205 212.336 423.965 212.928 423.485 213.376C423.005 213.792 422.445 214 421.805 214ZM446.402 211.696C446.338 209.296 446.338 205.616 446.402 200.656C446.498 195.696 446.546 192.448 446.546 190.912C446.546 190.24 446.77 189.68 447.218 189.232C447.698 188.752 448.274 188.512 448.946 188.512C449.618 188.512 450.178 188.752 450.626 189.232C451.106 189.68 451.346 190.24 451.346 190.912C451.346 192.448 451.298 195.68 451.202 200.608C451.138 205.536 451.138 209.2 451.202 211.6C451.202 212.272 450.978 212.848 450.53 213.328C450.082 213.808 449.522 214.048 448.85 214.048C448.178 214.048 447.602 213.824 447.122 213.376C446.642 212.928 446.402 212.368 446.402 211.696ZM450.866 180.208C451.41 180.752 451.682 181.424 451.682 182.224C451.682 183.024 451.41 183.696 450.866 184.24C450.322 184.784 449.65 185.056 448.85 185.056C448.05 185.056 447.378 184.784 446.834 184.24C446.29 183.696 446.018 183.024 446.018 182.224C446.018 181.424 446.29 180.752 446.834 180.208C447.378 179.664 448.05 179.392 448.85 179.392C449.682 179.36 450.354 179.632 450.866 180.208ZM460.148 214C459.508 214 458.948 213.792 458.468 213.376C457.988 212.928 457.748 212.336 457.748 211.6C457.748 209.072 457.732 206.896 457.7 205.072C457.636 199.632 457.604 194.912 457.604 190.912C457.604 190.176 457.828 189.6 458.276 189.184C458.724 188.768 459.268 188.56 459.908 188.56C460.58 188.56 461.156 188.784 461.636 189.232C462.148 189.648 462.404 190.24 462.404 191.008V192.496C464.388 189.904 466.996 188.608 470.228 188.608C473.012 188.608 475.14 189.584 476.612 191.536C478.116 193.488 478.868 196.112 478.868 199.408C478.868 203.056 478.82 205.456 478.724 206.608L478.484 209.824L478.34 211.888C478.276 212.528 478.02 213.04 477.572 213.424C477.124 213.808 476.596 214 475.988 214C475.348 214 474.788 213.792 474.308 213.376C473.828 212.928 473.588 212.336 473.588 211.6C473.588 211.088 473.7 209.312 473.924 206.272C474.084 204.192 474.164 202.56 474.164 201.376C474.164 198.656 473.78 196.656 473.012 195.376C472.244 194.064 471.06 193.408 469.46 193.408C468.308 193.408 467.108 193.76 465.86 194.464C464.644 195.168 463.492 196.064 462.404 197.152L462.5 203.968L462.548 211.6C462.548 212.336 462.308 212.928 461.828 213.376C461.348 213.792 460.788 214 460.148 214ZM495.594 223.84C493.738 224 491.946 223.792 490.218 223.216C488.522 222.64 487.114 221.632 485.994 220.192C485.578 219.648 485.226 218.976 484.938 218.176C484.682 217.376 484.714 216.672 485.034 216.064C485.354 215.488 485.818 215.104 486.426 214.912C487.066 214.72 487.674 214.784 488.25 215.104C488.858 215.424 489.258 215.888 489.45 216.496C489.514 216.752 489.594 217.088 489.69 217.504C489.786 217.952 490.138 218.384 490.746 218.8C492.186 219.312 493.77 219.536 495.498 219.472C497.066 219.408 498.266 219.072 499.098 218.464C499.93 217.888 500.458 217.216 500.682 216.448C501.002 215.36 501.258 213.632 501.45 211.264C500.234 212.544 498.394 213.312 495.93 213.568C493.818 213.664 491.914 213.376 490.218 212.704C488.554 212 487.226 211.008 486.234 209.728C485.274 208.448 484.57 207.024 484.122 205.456C483.674 203.952 483.514 202.064 483.642 199.792C483.898 196.272 485.274 193.44 487.77 191.296C490.554 189.088 493.914 188.304 497.85 188.944C499.29 189.424 500.426 190 501.258 190.672C501.29 189.392 501.898 188.608 503.082 188.32C503.85 188.256 504.458 188.432 504.906 188.848C505.386 189.264 505.674 189.792 505.77 190.432C506.122 194.336 506.33 199.104 506.394 204.736C506.426 207.936 506.33 210.608 506.106 212.752C505.85 215.952 505.098 218.336 503.85 219.904C502.602 221.504 501.354 222.512 500.106 222.928C498.858 223.376 497.354 223.68 495.594 223.84ZM495.594 208.672C496.778 208.704 497.69 208.56 498.33 208.24C500.186 207.664 501.258 206.144 501.546 203.68C501.706 201.792 501.626 199.984 501.306 198.256C501.082 197.168 500.426 196.224 499.338 195.424C498.698 194.912 497.882 194.576 496.89 194.416C494.33 193.968 492.362 194.352 490.986 195.568C489.674 196.624 488.922 198.176 488.73 200.224C488.57 202.912 489.098 205.008 490.314 206.512C491.562 207.984 493.322 208.704 495.594 208.672Z" fill="black"/>
</g>
<defs>
<clipPath id="clip0_5_27">
<rect width="720" height="400" fill="white"/>
</clipPath>
</defs>
</svg>
