<svg xmlns="http://www.w3.org/2000/svg" version="1.1" xmlns:xlink="http://www.w3.org/1999/xlink" xmlns:svgjs="http://svgjs.com/svgjs" width="512" height="512" x="0" y="0" viewBox="0 0 512 512" style="enable-background:new 0 0 512 512" xml:space="preserve" class=""><g><linearGradient id="a"><stop offset="0" stop-color="#addcff"></stop><stop offset=".503" stop-color="#eaf6ff"></stop><stop offset="1" stop-color="#eaf6ff"></stop></linearGradient><linearGradient xlink:href="#a" id="c" x1="256" x2="256" y1="482" y2="30" gradientUnits="userSpaceOnUse"></linearGradient><linearGradient id="b"><stop offset="0" stop-color="#5558ff"></stop><stop offset="1" stop-color="#00c0ff"></stop></linearGradient><linearGradient xlink:href="#b" id="d" x1="256" x2="256" y1="512" y2="0" gradientUnits="userSpaceOnUse"></linearGradient><linearGradient xlink:href="#b" id="e" x1="256" x2="256" y1="364.001" y2="90" gradientUnits="userSpaceOnUse"></linearGradient><linearGradient xlink:href="#a" id="f" x1="256" x2="256" y1="422" y2="181.996" gradientUnits="userSpaceOnUse"></linearGradient><path fill="url(#c)" d="M151 30H75c-8.291 0-15 6.709-15 15s6.709 15 15 15h76c8.291 0 15-6.709 15-15s-6.709-15-15-15zm150 0h-90c-8.291 0-15 6.709-15 15s6.709 15 15 15h90c8.291 0 15-6.709 15-15s-6.709-15-15-15zm60 30h76c8.291 0 15-6.709 15-15s-6.709-15-15-15h-76c-8.291 0-15 6.709-15 15s6.709 15 15 15zM151 452H75c-8.291 0-15 6.709-15 15s6.709 15 15 15h76c8.291 0 15-6.709 15-15s-6.709-15-15-15zm150 0h-90c-8.291 0-15 6.709-15 15s6.709 15 15 15h90c8.291 0 15-6.709 15-15s-6.709-15-15-15zm136 0h-76c-8.291 0-15 6.709-15 15s6.709 15 15 15h76c8.291 0 15-6.709 15-15s-6.709-15-15-15zM60 361c0-8.291-6.709-15-15-15s-15 6.709-15 15v76c0 8.291 6.709 15 15 15s15-6.709 15-15zm-15-45c8.291 0 15-6.709 15-15v-90c0-8.291-6.709-15-15-15s-15 6.709-15 15v90c0 8.291 6.709 15 15 15zm0-150c8.291 0 15-6.709 15-15V75c0-8.291-6.709-15-15-15s-15 6.709-15 15v76c0 8.291 6.709 15 15 15zm422 180c-8.291 0-15 6.709-15 15v76c0 8.291 6.709 15 15 15s15-6.709 15-15v-76c0-8.291-6.709-15-15-15zm0-150c-8.291 0-15 6.709-15 15v90c0 8.291 6.709 15 15 15s15-6.709 15-15v-90c0-8.291-6.709-15-15-15zm0-136c-8.291 0-15 6.709-15 15v76c0 8.291 6.709 15 15 15s15-6.709 15-15V75c0-8.291-6.709-15-15-15z" data-original="url(#c)" class=""></path><path fill="url(#d)" d="M45 0C20.186 0 0 20.186 0 45s20.186 45 45 45 45-20.186 45-45S69.814 0 45 0zm422 90c24.814 0 45-20.186 45-45S491.814 0 467 0s-45 20.186-45 45 20.186 45 45 45zm0 332c-24.814 0-45 20.186-45 45s20.186 45 45 45 45-20.186 45-45-20.186-45-45-45zm-422 0c-24.814 0-45 20.186-45 45s20.186 45 45 45 45-20.186 45-45-20.186-45-45-45z" data-original="url(#d)" class=""></path><path fill="url(#e)" d="M407.003 362c-3.903 0-7.74-1.524-10.609-4.394L317 278.213l-79.394 79.394c-5.857 5.858-15.355 5.858-21.213 0L167 308.213l-51.394 51.394A15 15 0 0 1 90 349V105c0-8.284 6.716-15 15-15h302c8.284 0 15 6.716 15 15v242a14.999 14.999 0 0 1-14.997 15z" data-original="url(#e)" class=""></path><path fill="url(#f)" d="m417.606 336.393-90-90c-5.857-5.858-15.355-5.858-21.213 0L227 325.787l-49.394-49.394c-5.857-5.858-15.355-5.858-21.213 0l-62 62A15.003 15.003 0 0 0 90 349v58c0 8.284 6.716 15 15 15h302c8.284 0 15-6.716 15-15v-60a15 15 0 0 0-4.394-10.607zm-190.602-64.397c24.813 0 45-20.187 45-45s-20.187-45-45-45-45 20.187-45 45 20.186 45 45 45z" data-original="url(#f)"></path></g></svg> 
