<svg xmlns="http://www.w3.org/2000/svg" version="1.1" xmlns:xlink="http://www.w3.org/1999/xlink" xmlns:svgjs="http://svgjs.com/svgjs" width="512" height="512" x="0" y="0" viewBox="0 0 52 52" style="enable-background:new 0 0 512 512" xml:space="preserve" class=""><g><g fill="#037ca9"><path d="M21.213 13.925A13.063 13.063 0 0 0 14.479 20h4.167a16.756 16.756 0 0 1 2.567-6.075zM18 26a28.351 28.351 0 0 1 .286-4h-4.65a12.9 12.9 0 0 0 0 8h4.65A28.351 28.351 0 0 1 18 26zM31.3 20c-1.077-4.338-3.239-7-5.3-7s-4.227 2.662-5.3 7zM20 26a26.651 26.651 0 0 0 .294 4h11.412a27.358 27.358 0 0 0 0-8H20.294A26.651 26.651 0 0 0 20 26zM14.479 32a13.063 13.063 0 0 0 6.734 6.075A16.756 16.756 0 0 1 18.646 32zM34 26a28.351 28.351 0 0 1-.286 4h4.65a12.9 12.9 0 0 0 0-8h-4.65A28.351 28.351 0 0 1 34 26z" fill="#037ca9" data-original="#037ca9" class=""></path><path d="M26 2a24 24 0 1 0 24 24A24.028 24.028 0 0 0 26 2zm0 39a15 15 0 1 1 15-15 15.017 15.017 0 0 1-15 15z" fill="#037ca9" data-original="#037ca9" class=""></path><path d="M20.7 32c1.077 4.338 3.239 7 5.3 7s4.227-2.662 5.3-7zM30.787 13.925A16.756 16.756 0 0 1 33.354 20h4.167a13.063 13.063 0 0 0-6.734-6.075zM30.787 38.075A13.063 13.063 0 0 0 37.521 32h-4.167a16.756 16.756 0 0 1-2.567 6.075z" fill="#037ca9" data-original="#037ca9" class=""></path></g></g></svg>