<svg xmlns="http://www.w3.org/2000/svg" xmlns:xlink="http://www.w3.org/1999/xlink" version="1.1" x="0px" y="0px" width="24px" height="24px" viewBox="0 0 24 24" enable-background="new 0 0 24 24" xml:space="preserve" focusable="false" aria-hidden="true" style="pointer-events: none; display: inherit; width: 100%; height: 100%;">
  <g>
    <path fill="#FF0033" d="M11.13,1.21c0.48-0.28,1.26-0.28,1.74,0l8.01,4.64c0.48,0.28,0.87,0.97,0.87,1.53v9.24   c0,0.56-0.39,1.25-0.87,1.53l-8.01,4.64c-0.48,0.28-1.26,0.28-1.74,0l-8.01-4.64c-0.48-0.28-0.87-0.97-0.87-1.53V7.38   c0-0.56,0.39-1.25,0.87-1.53L11.13,1.21z"></path>
    <polygon fill="#FFFFFF" points="10,15 15,12 10,9  "></polygon>
    <path fill="#FFFFFF" d="M12,6c0.11,0,0.19,0.03,0.21,0.04l4.89,2.82c0.05,0.03,0.14,0.2,0.14,0.37v5.67c0,0.17-0.09,0.34-0.14,0.37   l-4.9,2.83c-0.03,0.01-0.1,0.04-0.21,0.04c-0.11,0-0.19-0.03-0.21-0.04l-4.9-2.83c-0.05-0.03-0.15-0.2-0.15-0.37V9.24   c0-0.17,0.1-0.34,0.14-0.37l4.9-2.83C11.82,6.03,11.89,6,12,6 M12,5c-0.25,0-0.51,0.06-0.71,0.18L6.39,8   C5.99,8.23,5.75,8.77,5.75,9.24v5.67c0,0.47,0.24,1,0.64,1.24l4.9,2.83c0.2,0.12,0.46,0.18,0.71,0.18c0.25,0,0.51-0.06,0.71-0.18   l4.9-2.83c0.41-0.24,0.64-0.77,0.64-1.24V9.24c0-0.47-0.23-1-0.64-1.24l-4.9-2.82C12.51,5.06,12.26,5,12,5L12,5z"></path>
  </g>
</svg>