<svg xmlns="http://www.w3.org/2000/svg" xmlns:xlink="http://www.w3.org/1999/xlink" version="1.1" x="0px" y="0px" width="24px" height="24px" viewBox="0 0 24 24" enable-background="new 0 0 24 24" xml:space="preserve" focusable="false" aria-hidden="true" style="pointer-events: none; display: inherit; width: 100%; height: 100%;">
  <g>
    <g>
      <path fill="#FF0033" d="M22.64,13.2c-0.01-1.04-0.62-5.98-0.9-6.74c-0.19-0.5-0.58-1.4-1.31-1.95c-0.94-0.7-1.7-0.83-2.68-0.85    C17.06,3.64,6.12,5.03,4.79,5.51C3.8,5.88,3.03,6.35,2.42,6.95c-0.99,0.98-1.18,1.93-1.02,3.6c0.14,1.52,0.85,6.55,1.21,7.59    c0.39,1.15,1.11,2.03,2.3,2.16c3.62,0.39,4.48-1.6,12.9-1.58c2.55,0.01,3.82-1.11,4.35-2.08C22.77,15.49,22.65,13.99,22.64,13.2z"></path>
      <path fill="#212121" d="M17.47,4.04C17.47,4.04,17.48,4.04,17.47,4.04c0.94,0.02,1.67,0.14,2.56,0.81    c0.7,0.53,1.08,1.39,1.25,1.86c0.28,0.73,0.85,5.44,0.86,6.43c0.01,0.76,0.12,2.19-0.47,3.28c-0.5,0.92-1.71,1.98-4.13,1.98    c-0.01,0-0.01,0-0.02,0c-0.04,0-0.07,0-0.11,0c-7.23,0-8.55,1.56-11.33,1.56c-0.27,0-0.56-0.02-0.87-0.05    c-1.13-0.12-1.82-0.96-2.19-2.06c-0.34-0.99-1.01-5.79-1.15-7.24c-0.15-1.6,0.03-2.51,0.98-3.44c0.58-0.57,1.32-1.02,2.27-1.37    C6.38,5.35,16.73,4.04,17.47,4.04 M17.47,3.2c-0.47,0-3.53,0.37-6.09,0.72C8.82,4.27,5.6,4.75,4.84,5.03    c-1.06,0.39-1.9,0.9-2.56,1.56C1.05,7.8,0.9,9.06,1.05,10.7c0.12,1.27,0.8,6.28,1.19,7.43c0.53,1.55,1.55,2.48,2.89,2.62    c0.33,0.04,0.64,0.05,0.96,0.05c1.17,0,2.1-0.25,3.18-0.54c1.69-0.45,3.8-1.02,8.15-1.02l0.11,0l0.02,0    c1.07,0,3.68-0.24,4.86-2.42c0.63-1.17,0.6-2.59,0.58-3.43c0-0.09,0-0.18-0.01-0.26c-0.01-1.01-0.59-5.85-0.92-6.72    c-0.38-1-0.89-1.75-1.53-2.23c-1.05-0.79-1.94-0.96-3.04-0.98l-0.01,0L17.47,3.2L17.47,3.2z"></path>
    </g>
    <g>
      <path fill="#FFFFFF" d="M15.28,11.85c-0.03,0.02-0.05,0.03-0.08,0.05c-0.21,0.14-0.42,0.28-0.63,0.43    c-0.49,0.33-3.33,2.26-3.33,2.26c-0.24,0.18-0.7,0.47-0.87,0.38c-0.17-0.09-0.23-0.72-0.27-1.02l-0.01-0.07    c-0.05-0.36-0.46-3.83-0.51-4.21C9.56,9.56,9.5,9.17,9.62,9.08c0.13-0.1,0.47,0.01,0.58,0.05c0.66,0.21,3.93,1.35,4.95,1.86    c0.03,0.02,0.06,0.03,0.1,0.04c0.15,0.06,0.35,0.15,0.35,0.39C15.6,11.65,15.42,11.76,15.28,11.85z"></path>
      <path fill="#212121" d="M10.04,9.59c1.14,0.38,3.77,1.32,5.01,1.87c-0.15,0.1-0.3,0.2-0.45,0.3c-0.58,0.39-3.94,2.68-3.94,2.68    l-0.02,0.01l-0.02,0.01c0,0,0,0,0,0c0-0.03-0.01-0.05-0.01-0.07l-0.02-0.13l-0.01-0.08c-0.04-0.31-0.31-2.58-0.48-3.94    C10.08,9.98,10.06,9.76,10.04,9.59 M9.4,8.56c-0.07,0-0.14,0.01-0.18,0.05c-0.15,0.11-0.07,0.58-0.05,0.7    c0.05,0.45,0.54,4.56,0.6,4.99l0.01,0.08c0.05,0.36,0.12,1.1,0.33,1.21c0.03,0.01,0.06,0.02,0.1,0.02c0.25,0,0.68-0.28,0.93-0.47    c0,0,3.36-2.29,3.94-2.68c0.25-0.17,0.5-0.34,0.75-0.51c0.03-0.02,0.06-0.04,0.1-0.06c0.17-0.1,0.38-0.23,0.38-0.5    c-0.01-0.29-0.24-0.39-0.41-0.46c-0.04-0.02-0.08-0.03-0.11-0.05c-1.21-0.61-5.09-1.96-5.87-2.21C9.8,8.63,9.58,8.56,9.4,8.56    L9.4,8.56z"></path>
    </g>
  </g>
</svg>