<svg xmlns="http://www.w3.org/2000/svg" version="1.1" xmlns:xlink="http://www.w3.org/1999/xlink" xmlns:svgjs="http://svgjs.com/svgjs" width="512" height="512" x="0" y="0" viewBox="0 0 409.592 409.592" style="enable-background:new 0 0 512 512" xml:space="preserve" class=""><g><path d="M403.882 107.206c-2.15-17.935-19.052-35.133-36.736-37.437a1316.32 1316.32 0 0 0-324.685 0C24.762 72.068 7.86 89.271 5.71 107.206c-7.613 65.731-7.613 129.464 0 195.18 2.15 17.935 19.052 35.149 36.751 37.437a1316.32 1316.32 0 0 0 324.685 0c17.684-2.284 34.586-19.502 36.736-37.437 7.614-65.71 7.614-129.449 0-195.18zM170.661 273.074V136.539l102.4 68.27-102.4 68.265z" fill="#00c853" opacity="1" data-original="#000000" class=""></path></g></svg>