<svg xmlns="http://www.w3.org/2000/svg" version="1.1" xmlns:xlink="http://www.w3.org/1999/xlink"  width="512" height="512" x="0" y="0" viewBox="0 0 58 58" style="enable-background:new 0 0 512 512" xml:space="preserve" class=""><g><g xmlns="http://www.w3.org/2000/svg" id="003---Code-Conversation" fill="none"><path id="Path" d="m22 22h34c1.1032019.0032948 1.9967052.8967981 2 2v26c-.0032948 1.1032019-.8967981 1.9967052-2 2h-3c-.5522847 0-1 .4477153-1 1v3c-.0018061.7521989-.4255081 1.4397738-1.0966005 1.7795407s-1.4760715.2742601-2.0833995-.1695407l-7.29-5.23c-.343875-.2470308-.7565921-.3799397-1.18-.38h-18.35c-1.1032019-.0032948-1.9967052-.8967981-2-2v-26c0-1.1045695.8954305-2 2-2z" fill="#866adc" data-original="#866adc" class=""></path><path id="Path" d="m0 2v26c0 1.1045695.8954305 2 2 2h3c.55228475 0 1 .4477153 1 1v3c-.00010462.7522234.4218741 1.4408887 1.09213161 1.7823486.6702575.3414599 1.47542431.2779587 2.08386839-.1643486l7.3-5.231c.3406495-.2497335.751619-.3852064 1.174-.387h18.35c1.1045695 0 2-.8954305 2-2v-26c0-1.1045695-.8954305-2-2-2h-34c-1.1045695 0-2 .8954305-2 2z" fill="#31b791" data-original="#31b791" class=""></path><path id="Path" d="m14 12c-.2651948-.0000566-.5195073-.1054506-.707-.293l-3-3c-.39038194-.39049985-.39038194-1.02350015 0-1.414l3-3c.2510745-.25995658.6228779-.3642126.9725073-.27269716.3496295.09151544.6226744.3645604.7141899.71418984.0915154.34962943-.0127406.72143285-.2726972.97250732l-2.293 2.293 2.293 2.293c.2859079.2859943.3714219.7160366.216678 1.0896546-.1547439.3736179-.5192821.6172591-.923678.6173454z" fill="#f0f2f5" data-original="#f0f2f5" class=""></path><path id="Path" d="m24 12c-.4043959-.0000863-.7689341-.2437275-.923678-.6173454-.1547439-.373618-.0692299-.8036603.216678-1.0896546l2.293-2.293-2.293-2.293c-.3789722-.39237889-.3735524-1.01608478.0121814-1.40181858.3857338-.38573379 1.0094397-.39115363 1.4018186-.01218142l3 3c.3903819.39049985.3903819 1.02350015 0 1.414l-3 3c-.1874927.1875494-.4418052.2929434-.707.293z" fill="#f0f2f5" data-original="#f0f2f5" class=""></path><path id="Path" d="m18 13c-.0819433.0003256-.1635963-.009755-.243-.03-.257441-.0642346-.4788001-.2281489-.6153407-.4556541-.1365407-.2275053-.177068-.4999484-.1126593-.7573459l2-8c.1373346-.53205934.6782442-.85362876 1.2112708-.72009737.5330265.13353139.8584506.67213082.7287292 1.20609737l-2 8c-.1113683.4445697-.5106935.7565296-.969.757z" fill="#f0f2f5" data-original="#f0f2f5" class=""></path><path id="Path" d="m34 43c-.2651948-.0000566-.5195073-.1054506-.707-.293l-2-2c-.3903819-.3904999-.3903819-1.0235001 0-1.414l2-2c.3923789-.3789722 1.0160848-.3735524 1.4018186.0121814s.3911536 1.0094397.0121814 1.4018186l-1.293 1.293 1.293 1.293c.2859079.2859943.3714219.7160366.216678 1.0896546-.1547439.3736179-.5192821.6172591-.923678.6173454z" fill="#ffffff" data-original="#ffffff" class=""></path><path id="Path" d="m43 43c-.4043959-.0000863-.7689341-.2437275-.923678-.6173454-.1547439-.373618-.0692299-.8036603.216678-1.0896546l1.293-1.293-1.293-1.293c-.3789722-.3923789-.3735524-1.0160848.0121814-1.4018186s1.0094397-.3911536 1.4018186-.0121814l2 2c.3903819.3904999.3903819 1.0235001 0 1.414l-2 2c-.1874927.1875494-.4418052.2929434-.707.293z" fill="#ffffff" data-original="#ffffff" class=""></path><path id="Path" d="m38 44c-.0553075.0002649-.1105278-.0044204-.165-.014-.5444092-.0908048-.9123105-.6055085-.822-1.15l1-6c.1047182-.5303114.6119043-.881414 1.1451304-.7927233.5332261.0886908.8994524.5850668.8268696 1.1207233l-1 6c-.0801037.481827-.4965603.8352866-.985.836z" fill="#ffffff" data-original="#ffffff" class=""></path><g fill="#f0f2f5"><path id="Path" d="m33 18h-1c-.5522847 0-1-.4477153-1-1s.4477153-1 1-1h1c.5522847 0 1 .4477153 1 1s-.4477153 1-1 1z" fill="#f0f2f5" data-original="#f0f2f5" class=""></path><path id="Path" d="m33 22h-1c-.5522847 0-1-.4477153-1-1s.4477153-1 1-1h1c.5522847 0 1 .4477153 1 1s-.4477153 1-1 1z" fill="#f0f2f5" data-original="#f0f2f5" class=""></path><path id="Path" d="m28 18h-22c-.55228475 0-1-.4477153-1-1s.44771525-1 1-1h22c.5522847 0 1 .4477153 1 1s-.4477153 1-1 1z" fill="#f0f2f5" data-original="#f0f2f5" class=""></path><path id="Path" d="m19 26h-13c-.55228475 0-1-.4477153-1-1s.44771525-1 1-1h13c.5522847 0 1 .4477153 1 1s-.4477153 1-1 1z" fill="#f0f2f5" data-original="#f0f2f5" class=""></path><path id="Path" d="m28 22h-17c-.5522847 0-1-.4477153-1-1s.4477153-1 1-1h17c.5522847 0 1 .4477153 1 1s-.4477153 1-1 1z" fill="#f0f2f5" data-original="#f0f2f5" class=""></path><path id="Path" d="m7 22h-1c-.55228475 0-1-.4477153-1-1s.44771525-1 1-1h1c.55228475 0 1 .4477153 1 1s-.44771525 1-1 1z" fill="#f0f2f5" data-original="#f0f2f5" class=""></path></g><path id="Path" d="m32 47c-2.209139 0-4-1.790861-4-4 0-.649-1.424-1.646-2.408-2.087-.3595453-.1611853-.5909233-.5184778-.5909233-.9125s.231378-.7513147.5909233-.9125c1.138-.514 2.408-1.498 2.408-2.088 0-2.209139 1.790861-4 4-4 .5522847 0 1 .4477153 1 1s-.4477153 1-1 1c-1.1045695 0-2 .8954305-2 2-.1544621 1.2601123-.8962279 2.372761-2 3 1.1037721.627239 1.8455379 1.7398877 2 3 0 1.1045695.8954305 2 2 2 .5522847 0 1 .4477153 1 1s-.4477153 1-1 1z" fill="#ffffff" data-original="#ffffff" class=""></path><path id="Path" d="m45 47c-.5522847 0-1-.4477153-1-1s.4477153-1 1-1c1.1045695 0 2-.8954305 2-2 .1544621-1.2601123.8962279-2.372761 2-3-1.1037721-.627239-1.8455379-1.7398877-2-3 0-1.1045695-.8954305-2-2-2-.5522847 0-1-.4477153-1-1s.4477153-1 1-1c2.209139 0 4 1.790861 4 4 0 .649 1.424 1.646 2.408 2.087.3595453.1611853.5909233.5184778.5909233.9125s-.231378.7513147-.5909233.9125c-1.138.514-2.408 1.498-2.408 2.088 0 2.209139-1.790861 4-4 4z" fill="#ffffff" data-original="#ffffff" class=""></path></g></g></svg>