<svg xmlns="http://www.w3.org/2000/svg" version="1.1" xmlns:xlink="http://www.w3.org/1999/xlink"  width="512" height="512" x="0" y="0" viewBox="0 0 490.667 490.667" style="enable-background:new 0 0 512 512" xml:space="preserve" class=""><g>
<path xmlns="http://www.w3.org/2000/svg" style="" d="M245.333,0C109.839,0,0,109.839,0,245.333s109.839,245.333,245.333,245.333  s245.333-109.839,245.333-245.333C490.514,109.903,380.764,0.153,245.333,0z" fill="#2196f3" data-original="#2196f3"></path>
<path xmlns="http://www.w3.org/2000/svg" style="" d="M267.968,82.219c-12.496-12.492-32.752-12.492-45.248,0L104.533,200.533  c-18.889,18.894-18.889,49.522,0,68.416c19.139,18.289,49.277,18.289,68.416,0l19.2-19.2v123.584  c0,29.455,23.878,53.333,53.333,53.333c29.455,0,53.333-23.878,53.333-53.333V249.749l19.2,19.2  c19.139,18.289,49.277,18.289,68.416,0c18.889-18.894,18.889-49.522,0-68.416L267.968,82.219z" fill="#fafafa" data-original="#fafafa"></path>
<g xmlns="http://www.w3.org/2000/svg">
</g>
<g xmlns="http://www.w3.org/2000/svg">
</g>
<g xmlns="http://www.w3.org/2000/svg">
</g>
<g xmlns="http://www.w3.org/2000/svg">
</g>
<g xmlns="http://www.w3.org/2000/svg">
</g>
<g xmlns="http://www.w3.org/2000/svg">
</g>
<g xmlns="http://www.w3.org/2000/svg">
</g>
<g xmlns="http://www.w3.org/2000/svg">
</g>
<g xmlns="http://www.w3.org/2000/svg">
</g>
<g xmlns="http://www.w3.org/2000/svg">
</g>
<g xmlns="http://www.w3.org/2000/svg">
</g>
<g xmlns="http://www.w3.org/2000/svg">
</g>
<g xmlns="http://www.w3.org/2000/svg">
</g>
<g xmlns="http://www.w3.org/2000/svg">
</g>
<g xmlns="http://www.w3.org/2000/svg">
</g>
</g></svg>