<svg xmlns="http://www.w3.org/2000/svg" version="1.1" xmlns:xlink="http://www.w3.org/1999/xlink"  width="512" height="512" x="0" y="0" viewBox="0 0 447.149 447.149" style="enable-background:new 0 0 512 512" xml:space="preserve" class=""><g><g xmlns="http://www.w3.org/2000/svg"><path d="m225.888 70.619s36.035-74.657 122.1-65.954c3.839.427 7.319 2.457 9.58 5.589 9.461 12.605 14.317 28.07 13.761 43.821-1.626 28.763-107.83 50.919-107.83 50.919l-22.508-4.471z" fill="#f6c863" data-original="#f6c863"></path><path d="m315.681 82.083c-21.97 8.212-45.228 12.438-68.682 12.481 31.327-28.317 71.218-45.355 113.335-48.409 4.963-.408 6.819 5.271 3.404 8.898-7.696 8.149-27.259 19.093-48.057 27.03z" fill="#eab54e" data-original="#eab54e"></path><path d="m225.872 70.619s-36.035-74.657-122.1-65.954c-3.839.427-7.319 2.457-9.58 5.589-9.461 12.605-14.317 28.07-13.761 43.821 1.627 28.763 107.83 50.919 107.83 50.919l22.508-4.471z" fill="#f6c863" data-original="#f6c863"></path><path d="m136.078 82.083c21.97 8.212 45.228 12.438 68.682 12.481-17.52-15.586-37.673-27.933-59.515-36.465-17.301-6.453-35.414-10.472-53.82-11.944-4.963-.408-6.819 5.271-3.404 8.898 7.669 8.149 27.287 19.093 48.057 27.03z" fill="#eab54e" data-original="#eab54e"></path><circle cx="223.591" cy="95.537" fill="#eab54e" r="27.008" data-original="#eab54e"></circle><path d="m5.539 95.531h436.07c3.059 0 5.539 2.48 5.539 5.539v72.024c0 3.059-2.48 5.539-5.539 5.539h-436.07c-3.059 0-5.539-2.48-5.539-5.539v-72.024c0-3.059 2.48-5.539 5.539-5.539z" fill="#ef5261" data-original="#ef5261" class=""></path><path d="m425.115 163.397v274.253c-.009 3.055-2.484 5.53-5.539 5.539h-391.976c-3.055-.009-5.53-2.484-5.539-5.539v-274.253z" fill="#ef5261" data-original="#ef5261" class=""></path><path d="m22.061 178.634h403.06v19.389h-403.06z" fill="#da364c" data-original="#da364c"></path><path d="m191.167 95.531h64.842v347.652h-64.842z" fill="#f6c863" data-original="#f6c863"></path><path d="m191.15 178.634h64.876v19.389h-64.876z" fill="#eab54e" data-original="#eab54e"></path></g></g></svg>